<svg width="20" height="23" viewBox="0 0 20 23" fill="none" xmlns="http://www.w3.org/2000/svg">
<path d="M19.1094 21.375C19.3672 21.375 19.625 21.6328 19.625 21.8906V22.75H0.375V21.8906C0.375 21.6328 0.589844 21.375 0.890625 21.375H1.75V1.78125C1.75 1.22266 2.17969 0.75 2.78125 0.75H17.2188C17.7773 0.75 18.25 1.22266 18.25 1.78125V21.375H19.1094ZM5.875 4.01562V5.73438C5.875 6.03516 6.08984 6.25 6.39062 6.25H8.10938C8.36719 6.25 8.625 6.03516 8.625 5.73438V4.01562C8.625 3.75781 8.36719 3.5 8.10938 3.5H6.39062C6.08984 3.5 5.875 3.75781 5.875 4.01562ZM5.875 8.14062V9.85938C5.875 10.1602 6.08984 10.375 6.39062 10.375H8.10938C8.36719 10.375 8.625 10.1602 8.625 9.85938V8.14062C8.625 7.88281 8.36719 7.625 8.10938 7.625H6.39062C6.08984 7.625 5.875 7.88281 5.875 8.14062ZM8.10938 14.5C8.36719 14.5 8.625 14.2852 8.625 13.9844V12.2656C8.625 12.0078 8.36719 11.75 8.10938 11.75H6.39062C6.08984 11.75 5.875 12.0078 5.875 12.2656V13.9844C5.875 14.2852 6.08984 14.5 6.39062 14.5H8.10938ZM11.375 21.375V17.7656C11.375 17.5078 11.1172 17.25 10.8594 17.25H9.14062C8.83984 17.25 8.625 17.5078 8.625 17.7656V21.375H11.375ZM14.125 13.9844V12.2656C14.125 12.0078 13.8672 11.75 13.6094 11.75H11.8906C11.5898 11.75 11.375 12.0078 11.375 12.2656V13.9844C11.375 14.2852 11.5898 14.5 11.8906 14.5H13.6094C13.8672 14.5 14.125 14.2852 14.125 13.9844ZM14.125 9.85938V8.14062C14.125 7.88281 13.8672 7.625 13.6094 7.625H11.8906C11.5898 7.625 11.375 7.88281 11.375 8.14062V9.85938C11.375 10.1602 11.5898 10.375 11.8906 10.375H13.6094C13.8672 10.375 14.125 10.1602 14.125 9.85938ZM14.125 5.73438V4.01562C14.125 3.75781 13.8672 3.5 13.6094 3.5H11.8906C11.5898 3.5 11.375 3.75781 11.375 4.01562V5.73438C11.375 6.03516 11.5898 6.25 11.8906 6.25H13.6094C13.8672 6.25 14.125 6.03516 14.125 5.73438Z" fill="#0C721F"/>
</svg>
