<svg width="17" height="23" viewBox="0 0 17 23" fill="none" xmlns="http://www.w3.org/2000/svg">
<path d="M7.64062 22.3203C1.36719 13.2969 0.25 12.3516 0.25 9C0.25 4.44531 3.90234 0.75 8.5 0.75C13.0547 0.75 16.75 4.44531 16.75 9C16.75 12.3516 15.5898 13.2969 9.31641 22.3203C8.92969 22.9219 8.02734 22.9219 7.64062 22.3203ZM8.5 12.4375C10.3906 12.4375 11.9375 10.9336 11.9375 9C11.9375 7.10938 10.3906 5.5625 8.5 5.5625C6.56641 5.5625 5.0625 7.10938 5.0625 9C5.0625 10.9336 6.56641 12.4375 8.5 12.4375Z" fill="#0C721F"/>
</svg>
