<svg width="25" height="40" viewBox="0 0 25 40" fill="none" xmlns="http://www.w3.org/2000/svg">
<path d="M17.5781 18.2812C22.1094 19.6094 24.9219 24.5312 23.2031 29.375C22.0312 32.8125 18.5938 34.9219 15 35V38.75C15 39.4531 14.375 40 13.75 40H11.25C10.5469 40 10 39.4531 10 38.75V35C7.5 35 5.15625 34.2188 3.20312 32.6562C2.57812 32.1875 2.5 31.3281 3.04688 30.7812L5.78125 28.125C6.17188 27.7344 6.79688 27.6562 7.34375 27.9688C8.125 28.5156 9.0625 28.75 10 28.75H15.1562C16.4062 28.75 17.5 27.7344 17.5 26.4844C17.5 25.4688 16.7969 24.5312 15.7812 24.2969L7.8125 21.9531C4.29688 20.9375 1.5625 17.9688 1.25 14.375C0.78125 9.29688 4.76562 5 9.76562 5H10V1.25C10 0.625 10.5469 0 11.25 0H13.75C14.375 0 15 0.625 15 1.25V5C17.4219 5.07812 19.8438 5.85938 21.7188 7.34375C22.3438 7.89062 22.4219 8.75 21.875 9.29688L19.1406 11.9531C18.75 12.3438 18.125 12.4219 17.6562 12.1094C16.875 11.5625 15.9375 11.25 14.9219 11.25H9.76562C8.51562 11.25 7.5 12.3438 7.5 13.5938C7.5 14.6094 8.125 15.5469 9.14062 15.7812L17.5781 18.2812Z" fill="#0C721F"/>
</svg>
