<svg width="14" height="14" viewBox="0 0 14 14" fill="none" xmlns="http://www.w3.org/2000/svg">
<path d="M12.1875 5.96875C12.6855 5.96875 13.125 6.4082 13.125 6.90625V7.84375C13.125 8.37109 12.6855 8.78125 12.1875 8.78125H7.96875V13C7.96875 13.5273 7.5293 13.9375 7.03125 13.9375H6.09375C5.56641 13.9375 5.15625 13.5273 5.15625 13V8.78125H0.9375C0.410156 8.78125 0 8.37109 0 7.84375V6.90625C0 6.4082 0.410156 5.96875 0.9375 5.96875H5.15625V1.75C5.15625 1.25195 5.56641 0.8125 6.09375 0.8125H7.03125C7.5293 0.8125 7.96875 1.25195 7.96875 1.75V5.96875H12.1875Z" fill="black"/>
</svg>
