<svg width="40" height="40" viewBox="0 0 40 40" fill="none" xmlns="http://www.w3.org/2000/svg">
<path d="M20 0.625C30.7031 0.625 39.375 9.29688 39.375 20C39.375 30.7031 30.7031 39.375 20 39.375C9.29688 39.375 0.625 30.7031 0.625 20C0.625 9.29688 9.29688 0.625 20 0.625ZM27.1875 25.0781C27.3438 24.9219 27.5 24.6094 27.5 24.2969C27.5 23.9062 27.2656 23.5938 27.0312 23.3594L22.5 20V8.75C22.5 8.125 21.875 7.5 21.25 7.5H18.75C18.0469 7.5 17.5 8.125 17.5 8.75V20.9375C17.5 21.9531 17.8906 22.8125 18.6719 23.3594L23.9062 27.2656C24.0625 27.4219 24.375 27.5781 24.6094 27.5781C25.0781 27.5781 25.3906 27.3438 25.625 27.0312L27.1875 25.0781Z" fill="#0C721F"/>
</svg>
