<svg width="51" height="41" viewBox="0 0 51 41" fill="none" xmlns="http://www.w3.org/2000/svg">
<path d="M8.98438 11.7031C8.20312 11.4688 7.89062 10.4531 8.35938 9.82812C13.0469 3.96875 20.3125 0.6875 27.8125 1.07812C23.6719 3.34375 19.6875 8.26562 16.9531 14.6719L8.98438 11.7031ZM19.2969 15.5312C22.8125 7.5625 28.2812 2.09375 32.8125 2.09375C33.4375 2.09375 34.0625 2.25 34.6094 2.40625C39.375 4.20312 40.7031 12.7969 37.9688 22.25L19.2969 15.5312ZM40.7031 5.76562C46.7188 10.2969 50.1562 17.4844 49.9219 24.9062C49.9219 25.7656 49.0625 26.3125 48.2812 26.0781L40.2344 23.1094C41.6406 18.5 42.1875 13.9688 41.7188 10.0625C41.5625 8.5 41.1719 7.01562 40.7031 5.76562ZM43.75 36C44.375 36 45 36.625 45 37.25V39.75C45 40.4531 44.375 41 43.75 41H1.25C0.546875 41 0 40.4531 0 39.75V37.25C0 36.625 0.546875 36 1.25 36H19.6875L25.3906 20.375L30.1562 22.0938L25.0781 36H43.75Z" fill="#0C721F"/>
</svg>
