<svg width="15" height="16" viewBox="0 0 15 16" fill="none" xmlns="http://www.w3.org/2000/svg">
<path d="M7.5 0.609375C11.4844 0.609375 14.7656 3.89062 14.7656 7.875C14.7656 11.8887 11.4844 15.1406 7.5 15.1406C3.48633 15.1406 0.234375 11.8887 0.234375 7.875C0.234375 3.89062 3.48633 0.609375 7.5 0.609375ZM7.5 2.01562C4.24805 2.01562 1.64062 4.65234 1.64062 7.875C1.64062 11.127 4.24805 13.7344 7.5 13.7344C10.7227 13.7344 13.3594 11.127 13.3594 7.875C13.3594 4.65234 10.7227 2.01562 7.5 2.01562ZM11.6016 5.85352C11.7188 5.9707 11.7188 6.20508 11.6016 6.35156L6.5332 11.3613C6.38672 11.5078 6.18164 11.5078 6.03516 11.3613L3.36914 8.66602C3.25195 8.54883 3.25195 8.31445 3.36914 8.16797L4.04297 7.52344C4.18945 7.37695 4.39453 7.37695 4.54102 7.52344L6.29883 9.28125L10.4297 5.17969C10.5762 5.0332 10.8105 5.0332 10.9277 5.17969L11.6016 5.85352Z" fill="#0C721F"/>
</svg>
